<?xml version="1.0" encoding="UTF-8"?>
<svg width="171px" height="108px" viewBox="0 0 171 108" version="1.1" xmlns="http://www.w3.org/2000/svg" xmlns:xlink="http://www.w3.org/1999/xlink">
    <!-- Generator: Sketch 53.2 (72643) - https://sketchapp.com -->
    <title>CARD</title>
    <desc>Created with Sketch.</desc>
    <defs>
        <polygon id="path-1" points="0 18.765 55.4322415 18.765 55.4322415 0.11799 0 0.11799"></polygon>
    </defs>
    <g id="CARD" stroke="none" stroke-width="1" fill="none" fill-rule="evenodd">
        <g>
            <rect id="Rectangle-3" fill="#FEDF3B" x="0" y="0" width="171" height="108" rx="8"></rect>
            <g id="logo" transform="translate(10.000000, 10.000000)">
                <polygon id="Fill-1" fill="#5C686D" points="8.07335061 8.7817095 5.51846468 14.2132995 2.97812731 8.7817095 -1.34708738e-05 8.7817095 -1.34708738e-05 18.6688395 2.20166614 18.6688395 2.20166614 12.4452045 4.85515886 17.8484445 6.16789551 17.8484445 8.83526323 12.4452045 8.83526323 18.6688395 11.0372123 18.6688395 11.0372123 8.7817095"></polygon>
                <g id="Group-13" transform="translate(0.000000, 0.017010)">
                    <path d="M19.8701854,14.846814 C19.8701854,15.950169 19.4890944,16.879104 18.7270471,17.633349 C17.9647303,18.387729 17.0072206,18.764919 15.8547874,18.764919 C14.70195,18.764919 13.744575,18.387729 12.9825277,17.633349 C12.2203456,16.879104 11.8392546,15.950169 11.8392546,14.846814 C11.8392546,13.743594 12.2203456,12.812499 12.9825277,12.053259 C13.744575,11.294424 14.70195,10.914534 15.8547874,10.914534 C17.0072206,10.914534 17.9647303,11.294424 18.7270471,12.053259 C19.4890944,12.812499 19.8701854,13.743594 19.8701854,14.846814 Z M13.9704816,14.846814 C13.9704816,15.469164 14.14695,15.976224 14.4997522,16.367454 C14.8526891,16.758819 15.3042328,16.954434 15.8547874,16.954434 C16.4050726,16.954434 16.8568857,16.758819 17.2096879,16.367454 C17.5626248,15.976224 17.7389585,15.469164 17.7389585,14.846814 C17.7389585,14.224464 17.5626248,13.715244 17.2096879,13.319289 C16.8568857,12.923199 16.4050726,12.725154 15.8547874,12.725154 C15.3042328,12.725154 14.8526891,12.923199 14.4997522,13.319289 C14.14695,13.715244 13.9704816,14.224464 13.9704816,14.846814 Z" id="Fill-2" fill="#5C686D"></path>
                    <path d="M24.1372598,18.764973 C23.2386178,18.764973 22.436562,18.383058 21.7308229,17.619228 C21.0250839,16.855263 20.672147,15.907833 20.672147,14.776128 C20.672147,13.644423 21.0155195,12.718053 21.7025341,11.996613 C22.3892792,11.275308 23.1937598,10.914588 24.1161106,10.914588 C25.0380572,10.914588 25.7908096,11.239938 26.3743678,11.890638 L26.3743678,8.156403 L28.4915851,8.156403 L28.4915851,18.651708 L26.3743678,18.651708 L26.3743678,17.647578 C25.7815147,18.392508 25.0356324,18.764973 24.1372598,18.764973 M22.8035086,14.861043 C22.8035086,15.474078 22.9869819,15.976278 23.3539285,16.367238 C23.7210098,16.758873 24.1489795,16.954353 24.6383763,16.954353 C25.1275038,16.954353 25.5437538,16.758873 25.8875305,16.367238 C26.230903,15.976278 26.4026567,15.471648 26.4026567,14.854023 C26.4026567,14.236533 26.230903,13.722318 25.8875305,13.312053 C25.5437538,12.901923 25.122789,12.696993 24.6242319,12.696993 C24.1254055,12.696993 23.6973011,12.904353 23.3399188,13.319073 C22.9819977,13.734198 22.8035086,14.248278 22.8035086,14.861043" id="Fill-4" fill="#5C686D"></path>
                    <path d="M34.2758705,15.143976 L34.2758705,11.041866 L36.4070975,11.041866 L36.4070975,18.651816 L34.2758705,18.651816 L34.2758705,17.647551 C33.7486205,18.392481 33.0690149,18.764946 32.2362455,18.764946 C31.4036108,18.764946 30.7050113,18.503316 30.1403123,17.979921 C29.5757479,17.456526 29.2935331,16.681086 29.2935331,15.653061 L29.2935331,11.041866 L31.4248948,11.041866 L31.4248948,15.186366 C31.4248948,16.355736 31.8528644,16.940286 32.7092079,16.940286 C33.1325975,16.940286 33.4995441,16.787061 33.8101824,16.480476 C34.1205513,16.174296 34.2758705,15.728661 34.2758705,15.143976" id="Fill-6" fill="#5C686D"></path>
                    <mask id="mask-2" fill="white">
                        <use xlink:href="#path-1"></use>
                    </mask>
                    <g id="Clip-9"></g>
                    <polygon id="Fill-8" fill="#5C686D" mask="url(#mask-2)" points="37.2089782 18.651735 39.3261954 18.651735 39.3261954 8.15643 37.2089782 8.15643"></polygon>
                    <path d="M44.1225,12.9089565 C43.4920631,12.9089565 43.0216602,13.1330565 42.7110218,13.5809865 C42.4005182,14.0289165 42.2453337,14.6206215 42.2453337,15.3561015 L42.2453337,18.6518565 L40.1282512,18.6518565 L40.1282512,11.0420415 L42.2453337,11.0420415 L42.2453337,12.0461715 C42.5182536,11.7351315 42.8593362,11.4712065 43.2685813,11.2541265 C43.6779612,11.0373165 44.0942112,10.9240515 44.5177354,10.9147365 L44.5318799,12.9089565 L44.1225,12.9089565 Z" id="Fill-10" fill="#5C686D" mask="url(#mask-2)"></path>
                    <polygon id="Fill-11" fill="#FFFFFF" mask="url(#mask-2)" points="51.4216256 4.137183 51.4216256 0.117963 43.4005285 0.117963 43.4005285 8.156403 47.4112118 8.156403 47.4112118 4.137183"></polygon>
                    <polygon id="Fill-12" fill="#FFFFFF" mask="url(#mask-2)" points="51.4216256 4.137183 51.4216256 8.156403 47.4112118 8.156403 47.4112118 12.175623 55.4321742 12.175623 55.4321742 4.137183"></polygon>
                </g>
            </g>
            <rect id="Rectangle-5" fill-opacity="0.0757472826" fill="#000000" x="10" y="47" width="151" height="16" rx="2"></rect>
            <rect id="Rectangle-5-Copy" fill-opacity="0.0757472826" fill="#000000" x="10" y="88" width="61" height="10" rx="2"></rect>
            <rect id="Rectangle-5-Copy-3" fill-opacity="0.0757472826" fill="#000000" x="10" y="70" width="61" height="10" rx="2"></rect>
            <rect id="Rectangle-5-Copy-2" fill-opacity="0.0757472826" fill="#000000" x="81" y="88" width="36" height="10" rx="2"></rect>
            <rect id="Rectangle-5-Copy-4" fill-opacity="0.0757472826" fill="#000000" x="81" y="70" width="36" height="10" rx="2"></rect>
        </g>
        <g id="mc_vrt_pos" transform="translate(125.000000, 70.000000)" fill-rule="nonzero">
            <path d="M6.56923077,27.7723077 L6.56923077,25.9261538 C6.59099695,25.6120601 6.4765575,25.3037875 6.25510804,25.0799822 C6.03365858,24.8561769 5.72661422,24.7384818 5.41230769,24.7569231 C4.99810281,24.7297686 4.60194754,24.9302043 4.37846154,25.28 C4.17470643,24.9406336 3.8016241,24.7399248 3.40615385,24.7569231 C3.06182073,24.739516 2.73401894,24.9057583 2.54461538,25.1938462 L2.54461538,24.8307692 L1.90461538,24.8307692 L1.90461538,27.7723077 L2.55076923,27.7723077 L2.55076923,26.1538462 C2.52294104,25.9501816 2.58747005,25.7447253 2.72674684,25.5935445 C2.86602364,25.4423637 3.06551053,25.3612386 3.27076923,25.3723077 C3.69538462,25.3723077 3.91076923,25.6492308 3.91076923,26.1476923 L3.91076923,27.7846154 L4.55692308,27.7846154 L4.55692308,26.1538462 C4.53023679,25.9504132 4.59516037,25.7456226 4.73417894,25.5947221 C4.87319751,25.4438216 5.07198864,25.3623578 5.27692308,25.3723077 C5.71384615,25.3723077 5.92307692,25.6492308 5.92307692,26.1476923 L5.92307692,27.7846154 L6.56923077,27.7723077 Z M16.1292308,24.8307692 L15.0769231,24.8307692 L15.0769231,23.9384615 L14.4307692,23.9384615 L14.4307692,24.8307692 L13.8461538,24.8307692 L13.8461538,25.4153846 L14.4430769,25.4153846 L14.4430769,26.7692308 C14.4430769,27.4523077 14.7076923,27.8584615 15.4646154,27.8584615 C15.7474026,27.8594115 16.0247101,27.7804855 16.2646154,27.6307692 L16.08,27.0830769 C15.9083702,27.1854491 15.7135787,27.2426162 15.5138462,27.2492308 C15.2061538,27.2492308 15.0892308,27.0523077 15.0892308,26.7569231 L15.0892308,25.4153846 L16.1353846,25.4153846 L16.1292308,24.8307692 Z M21.5876923,24.7569231 C21.2698207,24.7475746 20.9723025,24.9128625 20.8123077,25.1876923 L20.8123077,24.8307692 L20.1784615,24.8307692 L20.1784615,27.7723077 L20.8184615,27.7723077 L20.8184615,26.1230769 C20.8184615,25.6369231 21.0276923,25.3661538 21.4338462,25.3661538 C21.5707336,25.3642814 21.7066508,25.3893738 21.8338462,25.44 L22.0307692,24.8246154 C21.8846068,24.7723274 21.7306169,24.7452751 21.5753846,24.7446154 L21.5876923,24.7569231 Z M13.3353846,25.0646154 C12.9731154,24.8492237 12.5566,24.7424249 12.1353846,24.7569231 C11.3907692,24.7569231 10.9046154,25.1138462 10.9046154,25.6984615 C10.9046154,26.1784615 11.2615385,26.4738462 11.92,26.5661538 L12.2276923,26.6092308 C12.5784615,26.6584615 12.7446154,26.7507692 12.7446154,26.9169231 C12.7446154,27.1446154 12.5107692,27.2738462 12.0738462,27.2738462 C11.7224008,27.2840191 11.3777548,27.1756399 11.0953846,26.9661538 L10.7876923,27.4646154 C11.1604966,27.7249202 11.6070221,27.8586621 12.0615385,27.8461538 C12.9107692,27.8461538 13.4030769,27.4461538 13.4030769,26.8861538 C13.4030769,26.3261538 13.0153846,26.0984615 12.3753846,26.0061538 L12.0676923,25.9630769 C11.7907692,25.9261538 11.5692308,25.8707692 11.5692308,25.6738462 C11.5692308,25.4769231 11.7784615,25.3292308 12.1292308,25.3292308 C12.4534386,25.3329969 12.7712603,25.4198682 13.0523077,25.5815385 L13.3353846,25.0646154 Z M30.4769231,24.7569231 C30.1590515,24.7475746 29.8615332,24.9128625 29.7015385,25.1876923 L29.7015385,24.8307692 L29.0676923,24.8307692 L29.0676923,27.7723077 L29.7076923,27.7723077 L29.7076923,26.1230769 C29.7076923,25.6369231 29.9169231,25.3661538 30.3230769,25.3661538 C30.4599644,25.3642814 30.5958815,25.3893738 30.7230769,25.44 L30.92,24.8246154 C30.7738375,24.7723274 30.6198477,24.7452751 30.4646154,24.7446154 L30.4769231,24.7569231 Z M22.2307692,26.2953846 C22.2153778,26.7133646 22.3768323,27.1184808 22.6755027,27.4112949 C22.9741731,27.7041091 23.3824067,27.8575106 23.8,27.8338462 C24.1842703,27.8533969 24.5619182,27.7282461 24.8584615,27.4830769 L24.5507692,26.9661538 C24.3295295,27.134865 24.0597485,27.2276696 23.7815385,27.2307692 C23.2909848,27.1910779 22.9131041,26.7813875 22.9131041,26.2892308 C22.9131041,25.797074 23.2909848,25.3873836 23.7815385,25.3476923 C24.0597485,25.3507919 24.3295295,25.4435966 24.5507692,25.6123077 L24.8584615,25.0953846 C24.5619182,24.8502154 24.1842703,24.7250647 23.8,24.7446154 C23.3824067,24.7209509 22.9741731,24.8743524 22.6755027,25.1671666 C22.3768323,25.4599807 22.2153778,25.865097 22.2307692,26.2830769 L22.2307692,26.2953846 Z M28.2246154,26.2953846 L28.2246154,24.8307692 L27.5846154,24.8307692 L27.5846154,25.1876923 C27.3641241,24.9039846 27.0206081,24.7436772 26.6615385,24.7569231 C25.8118696,24.7569231 25.1230769,25.4457158 25.1230769,26.2953846 C25.1230769,27.1450535 25.8118696,27.8338462 26.6615385,27.8338462 C27.0206081,27.8470921 27.3641241,27.6867846 27.5846154,27.4030769 L27.5846154,27.76 L28.2246154,27.76 L28.2246154,26.2953846 Z M25.8430769,26.2953846 C25.8715369,25.8125134 26.2807514,25.4409564 26.7641202,25.4590992 C27.247489,25.477242 27.6276992,25.8784293 27.6198818,26.3620753 C27.6120645,26.8457213 27.2190873,27.2344114 26.7353846,27.2369231 C26.489089,27.2400395 26.2526844,27.1401471 26.0832499,26.9613645 C25.9138154,26.7825819 25.8267506,26.5411583 25.8430769,26.2953846 L25.8430769,26.2953846 Z M18.12,24.7569231 C17.2703312,24.7688184 16.5911816,25.4672542 16.6030769,26.3169231 C16.6149723,27.1665919 17.3134081,27.8457415 18.1630769,27.8338462 C18.605766,27.8565689 19.0411094,27.7140131 19.3846154,27.4338462 L19.0769231,26.96 C18.8339575,27.154855 18.5329544,27.2631295 18.2215385,27.2676923 C17.7816512,27.3055231 17.3915632,26.9863602 17.3415385,26.5476923 L19.5261538,26.5476923 C19.5261538,26.4676923 19.5261538,26.3876923 19.5261538,26.3015385 C19.5261538,25.3784615 18.9538462,24.7630769 18.1292308,24.7630769 L18.12,24.7569231 Z M18.12,25.3292308 C18.3134163,25.3251072 18.5005446,25.3980092 18.6401966,25.5318904 C18.7798486,25.6657717 18.8605779,25.8496588 18.8646154,26.0430769 L17.3261538,26.0430769 C17.3493318,25.6322533 17.6964548,25.3151961 18.1076923,25.3292308 L18.12,25.3292308 Z M34.1538462,26.3015385 L34.1538462,23.6492308 L33.5384615,23.6492308 L33.5384615,25.1876923 C33.3179703,24.9039846 32.9744542,24.7436772 32.6153846,24.7569231 C31.7657158,24.7569231 31.0769231,25.4457158 31.0769231,26.2953846 C31.0769231,27.1450535 31.7657158,27.8338462 32.6153846,27.8338462 C32.9744542,27.8470921 33.3179703,27.6867846 33.5384615,27.4030769 L33.5384615,27.76 L34.1538462,27.76 L34.1538462,26.3015385 Z M35.2215385,27.3446154 C35.2615424,27.3441253 35.3012581,27.3514413 35.3384615,27.3661538 C35.3737978,27.3805736 35.406143,27.4014414 35.4338462,27.4276923 C35.4608828,27.454222 35.4827885,27.4855158 35.4984615,27.52 C35.5299573,27.5926299 35.5299573,27.6750624 35.4984615,27.7476923 C35.4827885,27.7821765 35.4608828,27.8134703 35.4338462,27.84 C35.406143,27.8662509 35.3737978,27.8871188 35.3384615,27.9015385 C35.3016253,27.9177924 35.2618013,27.9261764 35.2215385,27.9261538 C35.1024768,27.9252564 34.9946193,27.8557482 34.9446154,27.7476923 C34.9134843,27.6749871 34.9134843,27.5927052 34.9446154,27.52 C34.9602884,27.4855158 34.9821941,27.454222 35.0092308,27.4276923 C35.036934,27.4014414 35.0692792,27.3805736 35.1046154,27.3661538 C35.1446923,27.3502118 35.1876731,27.3428736 35.2307692,27.3446154 L35.2215385,27.3446154 Z M35.2215385,27.8646154 C35.2522491,27.8648019 35.2826539,27.8585113 35.3107692,27.8461538 C35.337242,27.8343346 35.3612506,27.817633 35.3815385,27.7969231 C35.4613221,27.7098747 35.4613221,27.5762791 35.3815385,27.4892308 C35.3612989,27.4684637 35.3372787,27.451754 35.3107692,27.44 C35.2826262,27.4277297 35.25224,27.4214429 35.2215385,27.4215385 C35.1908635,27.4217006 35.1605286,27.4279767 35.1323077,27.44 C35.104663,27.4513354 35.0795576,27.4680723 35.0584615,27.4892308 C34.9786779,27.5762791 34.9786779,27.7098747 35.0584615,27.7969231 C35.0796094,27.8180183 35.1047014,27.8347463 35.1323077,27.8461538 C35.1633507,27.8595409 35.1969852,27.8658474 35.2307692,27.8646154 L35.2215385,27.8646154 Z M35.24,27.4984615 C35.2687235,27.4970686 35.297028,27.5057777 35.32,27.5230769 C35.3391084,27.5388911 35.3494189,27.5629489 35.3476923,27.5876923 C35.3485855,27.6083554 35.3407725,27.6284462 35.3261538,27.6430769 C35.3083194,27.6592757 35.2855682,27.6690262 35.2615385,27.6707692 L35.3507692,27.7723077 L35.28,27.7723077 L35.1969231,27.6707692 L35.1692308,27.6707692 L35.1692308,27.7723077 L35.1107692,27.7723077 L35.1107692,27.5015385 L35.24,27.4984615 Z M35.1723077,27.5507692 L35.1723077,27.6246154 L35.24,27.6246154 C35.2520457,27.6282067 35.2648774,27.6282067 35.2769231,27.6246154 C35.2813116,27.6159062 35.2813116,27.6056322 35.2769231,27.5969231 C35.2813116,27.5882139 35.2813116,27.5779399 35.2769231,27.5692308 C35.2648774,27.5656394 35.2520457,27.5656394 35.24,27.5692308 L35.1723077,27.5507692 Z M31.7876923,26.3015385 C31.8161523,25.8186673 32.2253667,25.4471103 32.7087355,25.4652531 C33.1921044,25.4833959 33.5723145,25.8845832 33.5644972,26.3682292 C33.5566799,26.8518752 33.1637027,27.2405652 32.68,27.2430769 C32.4337043,27.2461933 32.1972998,27.1463009 32.0278653,26.9675183 C31.8584308,26.7887357 31.771366,26.5473122 31.7876923,26.3015385 L31.7876923,26.3015385 Z M10.1784615,26.3015385 L10.1784615,24.8307692 L9.53846154,24.8307692 L9.53846154,25.1876923 C9.31797026,24.9039846 8.97445424,24.7436772 8.61538462,24.7569231 C7.76571577,24.7569231 7.07692308,25.4457158 7.07692308,26.2953846 C7.07692308,27.1450535 7.76571577,27.8338462 8.61538462,27.8338462 C8.97445424,27.8470921 9.31797026,27.6867846 9.53846154,27.4030769 L9.53846154,27.76 L10.1784615,27.76 L10.1784615,26.3015385 Z M7.79692308,26.3015385 C7.82538308,25.8186673 8.23459751,25.4471103 8.71796631,25.4652531 C9.20133512,25.4833959 9.58154531,25.8845832 9.57372798,26.3682292 C9.56591065,26.8518752 9.17293342,27.2405652 8.68923077,27.2430769 C8.4418737,27.247933 8.20382335,27.1488021 8.03302421,26.969814 C7.86222506,26.7908259 7.77434286,26.5483973 7.79076923,26.3015385 L7.79692308,26.3015385 Z" id="Shape" fill="#231F20"></path>
            <g id="_Group_">
                <rect id="Rectangle" fill="#FF5F00" x="13.1230769" y="2.41538462" width="9.69230769" height="17.4184615"></rect>
                <path d="M13.7384615,11.1261538 C13.7348377,7.726613 15.2950289,4.51432131 17.9692308,2.41538462 C13.4276278,-1.15383022 6.90570379,-0.633943215 2.98689166,3.60968302 C-0.93192047,7.85330925 -0.93192047,14.3959215 2.98689166,18.6395478 C6.90570379,22.883174 13.4276278,23.403061 17.9692308,19.8338462 C15.2958796,17.7355758 13.7357838,14.5246149 13.7384615,11.1261538 L13.7384615,11.1261538 Z" id="_Path_" fill="#EB001B"></path>
                <path d="M35.8923077,11.1261538 C35.8922088,15.367194 33.470591,19.2358924 29.6559247,21.0891981 C25.8412584,22.9425038 21.3032584,22.4550446 17.9692308,19.8338462 C20.6414155,17.7337944 22.2016287,14.5232605 22.2016287,11.1246154 C22.2016287,7.72597031 20.6414155,4.51543636 17.9692308,2.41538462 C21.3032584,-0.205813792 25.8412584,-0.693273053 29.6559247,1.16003265 C33.470591,3.01333836 35.8922088,6.88203681 35.8923077,11.1230769 L35.8923077,11.1261538 Z" id="Path" fill="#F79E1B"></path>
                <path d="M34.8338462,17.9876923 L34.8338462,17.6307692 L34.9784615,17.6307692 L34.9784615,17.5569231 L34.6123077,17.5569231 L34.6123077,17.6307692 L34.7692308,17.6307692 L34.7692308,17.9876923 L34.8338462,17.9876923 Z M35.5446154,17.9876923 L35.5446154,17.5569231 L35.4338462,17.5569231 L35.3046154,17.8646154 L35.1753846,17.5569231 L35.0769231,17.5569231 L35.0769231,17.9876923 L35.1569231,17.9876923 L35.1569231,17.6646154 L35.2769231,17.9446154 L35.36,17.9446154 L35.48,17.6646154 L35.48,17.9907692 L35.5446154,17.9876923 Z" id="Shape" fill="#F79E1B"></path>
            </g>
        </g>
    </g>
</svg>