<svg xmlns="http://www.w3.org/2000/svg" xmlns:xlink="http://www.w3.org/1999/xlink" width="207" height="131"
     viewBox="0 0 207 131">
  <defs>
    <path id="a" d="M0 22.761h67.076V.143H0z"/>
  </defs>
  <g fill="none" fill-rule="evenodd">
    <rect width="206.921" height="131" fill="#FEDF3B" rx="10.148"/>
    <path fill="#5C686D"
          d="M21.87 22.782l-3.092 6.588-3.074-6.588h-3.603v11.992h2.664v-7.549l3.21 6.554h1.59l3.227-6.554v7.55h2.664V22.781z"/>
    <g transform="translate(12.1 12.15)">
      <path fill="#5C686D"
            d="M24.044 18.009c0 1.338-.461 2.465-1.383 3.38-.923.915-2.081 1.372-3.476 1.372s-2.553-.457-3.475-1.372c-.923-.915-1.384-2.042-1.384-3.38 0-1.339.461-2.468 1.384-3.389.922-.92 2.08-1.381 3.475-1.381s2.553.46 3.476 1.381c.922.921 1.383 2.05 1.383 3.389zm-7.139 0c0 .755.214 1.37.64 1.844.428.475.974.712 1.64.712.666 0 1.213-.237 1.64-.712.427-.474.64-1.09.64-1.844 0-.755-.213-1.373-.64-1.853-.427-.48-.974-.72-1.64-.72-.666 0-1.212.24-1.64.72-.426.48-.64 1.098-.64 1.853zM29.208 22.761c-1.088 0-2.058-.463-2.912-1.39-.854-.926-1.281-2.075-1.281-3.448 0-1.373.415-2.496 1.246-3.372.831-.874 1.805-1.312 2.921-1.312 1.116 0 2.026.395 2.733 1.184v-4.53h2.562v12.73h-2.562v-1.217c-.718.903-1.62 1.355-2.707 1.355m-1.614-4.735c0 .743.222 1.353.666 1.827.444.475.962.712 1.554.712.592 0 1.096-.237 1.512-.712.415-.474.623-1.086.623-1.836 0-.749-.208-1.372-.623-1.87-.416-.497-.926-.746-1.53-.746-.603 0-1.12.252-1.553.755-.433.503-.65 1.127-.65 1.87M41.476 18.37v-4.977h2.579v9.231h-2.58v-1.218c-.637.903-1.46 1.355-2.467 1.355-1.008 0-1.853-.317-2.536-.952-.684-.635-1.025-1.575-1.025-2.822v-5.594h2.58v5.027c0 1.419.517 2.128 1.553 2.128.512 0 .957-.186 1.332-.558.376-.371.564-.912.564-1.62"/>
      <mask id="b" fill="#fff">
        <use xlink:href="#a"/>
      </mask>
      <path fill="#5C686D"
            d="M45.025 22.624h2.562V9.894h-2.562zM53.39 15.658c-.762 0-1.331.272-1.707.815-.376.544-.564 1.261-.564 2.153v3.998h-2.561v-9.23h2.561v1.218c.33-.378.743-.698 1.239-.961.495-.263.999-.4 1.511-.412l.017 2.42h-.495z"
            mask="url(#b)"/>
      <path fill="#FFF" d="M62.223 5.018V.143h-9.706v9.75h4.853V5.018z" mask="url(#b)"/>
      <path fill="#FFF" d="M62.223 5.018v4.875H57.37v4.876h9.706v-9.75z" mask="url(#b)"/>
    </g>
    <rect width="182.719" height="19.407" x="12.101" y="57.009" fill="#000" fill-opacity=".076" rx="2.537"/>
    <rect width="73.814" height="12.13" x="12.101" y="106.741" fill="#000" fill-opacity=".076" rx="2.537"/>
    <rect width="73.814" height="12.13" x="12.101" y="84.907" fill="#000" fill-opacity=".076" rx="2.537"/>
    <g fill="#004F8B">
      <path
        d="M144.495 118.63l3.943-23.201h6.306l-3.946 23.201h-6.303M173.67 96c-1.25-.47-3.207-.974-5.652-.974-6.23 0-10.62 3.146-10.658 7.656-.035 3.334 3.134 5.194 5.526 6.304 2.454 1.137 3.28 1.862 3.268 2.878-.016 1.555-1.96 2.265-3.773 2.265-2.524 0-3.865-.351-5.936-1.217l-.812-.37-.885 5.194c1.473.648 4.196 1.21 7.024 1.238 6.63 0 10.932-3.11 10.981-7.926.024-2.64-1.656-4.648-5.294-6.304-2.204-1.073-3.554-1.79-3.54-2.876 0-.965 1.142-1.996 3.611-1.996a11.602 11.602 0 0 1 4.72.889l.565.267.855-5.028M189.84 95.451h-4.873c-1.51 0-2.639.413-3.302 1.924l-9.365 21.263h6.622s1.083-2.86 1.328-3.487c.723 0 7.156.01 8.075.01.189.812.768 3.477.768 3.477h5.851L189.84 95.45m-7.776 14.954a5098.39 5098.39 0 0 0 2.513-6.485c-.038.061.517-1.344.836-2.215l.426 2 1.46 6.7h-5.235M139.206 95.446l-6.174 15.822-.658-3.216c-1.149-3.707-4.73-7.722-8.733-9.732l5.645 20.29 6.672-.007 9.928-23.157h-6.68"/>
      <path
        d="M127.305 95.432h-10.169l-.08.482c7.911 1.92 13.146 6.562 15.318 12.138l-2.21-10.662c-.383-1.47-1.49-1.907-2.86-1.958"/>
    </g>
  </g>
</svg>
