<?xml version="1.0" encoding="UTF-8"?>
<svg width="207px" height="131px" viewBox="0 0 207 131" version="1.1" xmlns="http://www.w3.org/2000/svg"
     xmlns:xlink="http://www.w3.org/1999/xlink">
  <!-- Generator: Sketch 61.2 (89653) - https://sketch.com -->
  <title>CARD_inactive_visa</title>
  <desc>Created with Sketch.</desc>
  <defs>
    <polygon id="path-1" points="0 22.76125 67.0764182 22.76125 67.0764182 0.1431175 0 0.1431175"></polygon>
  </defs>
  <g id="CARD_inactive_visa" stroke="none" stroke-width="1" fill="none" fill-rule="evenodd">
    <g transform="translate(0.000000, -0.000000)">
      <rect id="Rectangle-3" fill-opacity="0.2" fill="#000000" x="0" y="0" width="206.920507" height="131"
            rx="10.1481481"></rect>
      <g id="logo" transform="translate(12.100614, 12.129630)">
        <polygon id="Fill-1" fill="#5C686D"
                 points="9.76925029 10.6518884 6.67768134 17.2402059 3.60371703 10.6518884 -1.6300585e-05 10.6518884 -1.6300585e-05 22.6446109 2.66415131 22.6446109 2.66415131 15.0955721 5.87504054 21.6495021 7.46353255 21.6495021 10.6912114 15.0955721 10.6912114 22.6446109 13.355705 22.6446109 13.355705 10.6518884"></polygon>
        <g id="Group-13" transform="translate(0.000000, 0.020633)">
          <path
            d="M24.0441453,18.0086355 C24.0441453,19.3469643 23.5830017,20.473728 22.6608776,21.3885993 C21.7384275,22.3036343 20.579782,22.7611518 19.1852669,22.7611518 C17.7902628,22.7611518 16.6317803,22.3036343 15.7096562,21.3885993 C14.7873691,20.473728 14.3262255,19.3469643 14.3262255,18.0086355 C14.3262255,16.6704705 14.7873691,15.5410868 15.7096562,14.6201568 C16.6317803,13.699718 17.7902628,13.2389255 19.1852669,13.2389255 C20.579782,13.2389255 21.7384275,13.699718 22.6608776,14.6201568 C23.5830017,15.5410868 24.0441453,16.6704705 24.0441453,18.0086355 Z M16.9051411,18.0086355 C16.9051411,18.763523 17.1186787,19.378568 17.5455911,19.8531155 C17.9726664,20.3278268 18.519062,20.5651005 19.1852669,20.5651005 C19.8511458,20.5651005 20.3978674,20.3278268 20.8247797,19.8531155 C21.2518551,19.378568 21.4652297,18.763523 21.4652297,18.0086355 C21.4652297,17.253748 21.2518551,16.636083 20.8247797,16.1558043 C20.3978674,15.6753618 19.8511458,15.4351405 19.1852669,15.4351405 C18.519062,15.4351405 17.9726664,15.6753618 17.5455911,16.1558043 C17.1186787,16.636083 16.9051411,17.253748 16.9051411,18.0086355 Z"
            id="Fill-2" fill="#5C686D"></path>
          <path
            d="M29.2075675,22.7612173 C28.1201555,22.7612173 27.1496186,22.2979685 26.295631,21.371471 C25.4416433,20.4448098 25.014568,19.2956123 25.014568,17.922896 C25.014568,16.5501798 25.4300699,15.4265273 26.2613998,14.5514473 C27.0924036,13.676531 28.0658745,13.238991 29.1819756,13.238991 C30.2975876,13.238991 31.2084643,13.6336285 31.9146056,14.4229035 L31.9146056,9.89341475 L34.4765686,9.89341475 L34.4765686,22.623831 L31.9146056,22.623831 L31.9146056,21.4058585 C31.1972169,22.309431 30.2946535,22.7612173 29.2075675,22.7612173 M27.5936466,18.0258947 C27.5936466,18.7694835 27.8156605,19.3786335 28.2596885,19.8528535 C28.7038794,20.3278923 29.221749,20.5650023 29.8139492,20.5650023 C30.4058235,20.5650023 30.9095116,20.3278923 31.3255025,19.8528535 C31.7410044,19.3786335 31.9488369,18.766536 31.9488369,18.0173798 C31.9488369,17.2683872 31.7410044,16.6446635 31.3255025,16.1470273 C30.9095116,15.6495547 30.4001183,15.4009822 29.7968336,15.4009822 C29.193223,15.4009822 28.6751904,15.6525022 28.2427359,16.1555422 C27.8096293,16.6590735 27.5936466,17.2826335 27.5936466,18.0258947"
            id="Fill-4" fill="#5C686D"></path>
          <path
            d="M41.4759094,18.369082 L41.4759094,13.3933745 L44.0548249,13.3933745 L44.0548249,22.623962 L41.4759094,22.623962 L41.4759094,21.4058258 C40.8379045,22.3093983 40.01554,22.7611845 39.0078378,22.7611845 C38.0002986,22.7611845 37.1549503,22.443837 36.4716298,21.8089783 C35.7884723,21.1741195 35.446975,20.2335395 35.446975,18.9865833 L35.446975,13.3933745 L38.0260536,13.3933745 L38.0260536,18.4204995 C38.0260536,19.838902 38.5439231,20.5479395 39.5801513,20.5479395 C40.0924787,20.5479395 40.5365066,20.3620833 40.9123981,19.990207 C41.2879636,19.618822 41.4759094,19.0782833 41.4759094,18.369082"
            id="Fill-6" fill="#5C686D"></path>
          <mask id="mask-2" fill="white">
            <use xlink:href="#path-1"></use>
          </mask>
          <g id="Clip-9"></g>
          <polygon id="Fill-8" fill="#5C686D" mask="url(#mask-2)"
                   points="45.0251498 22.6238638 47.5871128 22.6238638 47.5871128 9.8934475 45.0251498 9.8934475"></polygon>
          <path
            d="M53.3909361,15.6580861 C52.6280687,15.6580861 52.0588523,15.9299111 51.6829608,16.4732336 C51.3072323,17.0165561 51.1194495,17.7342724 51.1194495,18.6263824 L51.1194495,22.6240111 L48.5576496,22.6240111 L48.5576496,13.3935874 L51.1194495,13.3935874 L51.1194495,14.6115599 C51.4496994,14.2342799 51.8624302,13.9141486 52.357642,13.6508386 C52.8530168,13.3878561 53.3567048,13.2504699 53.8691952,13.2391711 L53.8863108,15.6580861 L53.3909361,15.6580861 Z"
            id="Fill-10" fill="#5C686D" mask="url(#mask-2)"></path>
          <polygon id="Fill-11" fill="#FFFFFF" mask="url(#mask-2)"
                   points="62.2233265 5.01824975 62.2233265 0.14308475 52.5173062 0.14308475 52.5173062 9.89341475 57.3704794 9.89341475 57.3704794 5.01824975"></polygon>
          <polygon id="Fill-12" fill="#FFFFFF" mask="url(#mask-2)"
                   points="62.2233265 5.01824975 62.2233265 9.89341475 57.3704794 9.89341475 57.3704794 14.7685798 67.0763367 14.7685798 67.0763367 5.01824975"></polygon>
        </g>
      </g>
      <rect id="Rectangle-5" fill-opacity="0.0757472826" fill="#000000" x="12.1006144" y="57.0092593" width="182.719278"
            height="19.4074074" rx="2.53703704"></rect>
      <g id="Visa-logo" transform="translate(117.000000, 95.000000)" fill="#004F8B">
        <polyline id="Fill-2"
                  points="27.495 23.6302222 31.4379886 0.428888889 37.7440227 0.428888889 33.798375 23.6302222 27.495 23.6302222"></polyline>
        <path
          d="M56.6696591,1 C55.4203295,0.529777778 53.4627955,0.0257777778 51.0177614,0.0257777778 C44.7870682,0.0257777778 40.3973523,3.17244444 40.360125,7.68222222 C40.3251136,11.016 43.4938636,12.876 45.8857159,13.9857778 C48.3400568,15.1226667 49.1657045,15.848 49.1537386,16.8635556 C49.1382273,18.4186667 47.1935455,19.1293333 45.3809318,19.1293333 C42.8570114,19.1293333 41.5163864,18.7777778 39.4453977,17.9115556 L38.6326023,17.5426667 L37.7475682,22.7364444 C39.2207045,23.384 41.9445,23.9453333 44.772,23.9742222 C51.4011136,23.9742222 55.7039659,20.8635556 55.7531591,16.0475556 C55.7770909,13.4084444 54.0965455,11.3995556 50.4589091,9.744 C48.2545227,8.67066667 46.9045909,7.95422222 46.9187727,6.86755556 C46.9187727,5.90311111 48.0612955,4.872 50.5302614,4.872 C52.5923864,4.84 54.0859091,5.29066667 55.2497045,5.76088889 L55.8147614,6.02844444 L56.6696591,1"
          id="Fill-3"></path>
        <path
          d="M72.8400341,0.451111111 L67.96725,0.451111111 C66.4577727,0.451111111 65.3281023,0.864 64.6651023,2.37511111 L55.2997841,23.6377778 L61.9218068,23.6377778 C61.9218068,23.6377778 63.0045,20.7786667 63.2495795,20.1511111 C63.9732955,20.1511111 70.4056364,20.1608889 71.3252386,20.1608889 C71.5140341,20.9728889 72.0928295,23.6377778 72.0928295,23.6377778 L77.9441591,23.6377778 L72.8400341,0.451111111 M65.0644091,15.4053333 C65.5855909,14.0684444 67.5768068,8.91955556 67.5768068,8.91955556 C67.5391364,8.98133333 68.0944432,7.57644444 68.4126477,6.70533333 L68.8389886,8.70577778 C68.8389886,8.70577778 70.0466591,14.244 70.2988295,15.4053333 L65.0644091,15.4053333"
          id="Fill-4"></path>
        <path
          d="M22.2060682,0.445777778 L16.0321023,16.2675556 L15.3744205,13.052 C14.22525,9.34533333 10.6443409,5.32977778 6.64063636,3.31955556 L12.2858864,23.6102222 L18.9579886,23.6026667 L28.8857045,0.445777778 L22.2060682,0.445777778"
          id="Fill-5"></path>
        <path
          d="M10.3048636,0.431555556 L0.1365,0.431555556 L0.0558409091,0.914222222 C7.96707955,2.83466667 13.2015,7.47555556 15.3744205,13.052 L13.1633864,2.39022222 C12.7813636,0.920888889 11.6742955,0.482666667 10.3048636,0.431555556"
          id="Fill-6"></path>
      </g>
      <rect id="Rectangle-5-Copy" fill-opacity="0.0757472826" fill="#000000" x="12.1006144" y="106.740741"
            width="73.8137481" height="12.1296296" rx="2.53703704"></rect>
      <rect id="Rectangle-5-Copy-3" fill-opacity="0.0757472826" fill="#000000" x="12.1006144" y="84.9074074"
            width="73.8137481" height="12.1296296" rx="2.53703704"></rect>
    </g>
  </g>
</svg>
